<svg width="25" height="23" viewBox="0 0 25 23" fill="none" xmlns="http://www.w3.org/2000/svg">
<path d="M13.0978 22.0724C12.7838 22.3778 12.3582 22.5493 11.9144 22.5493C11.4707 22.5493 11.0451 22.3778 10.7311 22.0724L1.24216 12.8316C0.928578 12.5259 0.752441 12.1114 0.752441 11.6792C0.752441 11.2471 0.928578 10.8326 1.24216 10.5269L10.7311 1.28612C11.0487 0.998222 11.4686 0.841447 11.9025 0.848745C12.3363 0.856044 12.7504 1.02685 13.0576 1.32525C13.364 1.62444 13.5394 2.02767 13.5469 2.45017C13.5544 2.87267 13.3934 3.28155 13.0978 3.59087L6.46667 10.0485L23.0779 10.0485C23.522 10.0485 23.948 10.2203 24.262 10.5262C24.576 10.832 24.7524 11.2468 24.7524 11.6792C24.7524 12.1117 24.576 12.5265 24.262 12.8323C23.948 13.1382 23.522 13.31 23.0779 13.31L6.46667 13.31L13.0978 19.7676C13.4114 20.0734 13.5875 20.4879 13.5875 20.92C13.5875 21.3521 13.4114 21.7666 13.0978 22.0724Z" fill="white"/>
</svg>
