<svg width="50" height="50" viewBox="0 0 50 50" fill="none" xmlns="http://www.w3.org/2000/svg">
<g filter="url(#filter0_d_8_1801)">
<circle cx="25" cy="25" r="15" fill="url(#paint0_linear_8_1801)"/>
</g>
<g clip-path="url(#clip0_8_1801)">
<path fill-rule="evenodd" clip-rule="evenodd" d="M27.5224 17.5147C27.5333 17.4991 27.5548 17.4953 27.5704 17.5062L28.6354 18.252C28.651 18.2629 28.6548 18.2844 28.6439 18.3L27.1615 20.417C27.8822 20.6472 28.3732 20.8956 28.3732 20.8956C28.3732 20.8956 27.173 22.9599 25.1375 22.9599C23.102 22.9599 21.6556 21.0359 21.6556 21.0359C21.6556 21.0359 22.1685 20.7086 22.9287 20.4279L21.3027 18.4902C21.2905 18.4756 21.2924 18.4539 21.307 18.4417L22.303 17.6059C22.3176 17.5937 22.3393 17.5956 22.3515 17.6101L24.4103 20.0637C24.5865 20.0437 24.7661 20.0326 24.9474 20.0326C25.2078 20.0326 25.468 20.0524 25.722 20.086L27.5224 17.5147ZM27.9251 23.0577C28.4683 22.6697 29.2903 21.6572 29.2903 21.6572C29.2903 21.6572 31.3898 23.3209 31.3898 26.8488C31.3898 30.3765 27.76 32.4998 27.76 32.4998C27.76 32.4998 26.0258 30.7484 25.6001 28.5282C25.1743 26.3081 26.2298 23.8429 26.2298 23.8429C26.2298 23.8429 27.3819 23.4456 27.9251 23.0577ZM22.075 23.0577C21.5318 22.6697 20.7099 21.6572 20.7099 21.6572C20.7099 21.6572 18.6104 23.3209 18.6104 26.8488C18.6104 30.3765 22.2401 32.4998 22.2401 32.4998C22.2401 32.4998 23.9743 30.7484 24.4001 28.5282C24.8258 26.3081 23.7703 23.8429 23.7703 23.8429C23.7703 23.8429 22.6183 23.4456 22.075 23.0577Z" fill="white"/>
</g>
<defs>
<filter id="filter0_d_8_1801" x="0" y="0" width="50" height="50" filterUnits="userSpaceOnUse" color-interpolation-filters="sRGB">
<feFlood flood-opacity="0" result="BackgroundImageFix"/>
<feColorMatrix in="SourceAlpha" type="matrix" values="0 0 0 0 0 0 0 0 0 0 0 0 0 0 0 0 0 0 127 0" result="hardAlpha"/>
<feOffset/>
<feGaussianBlur stdDeviation="5"/>
<feComposite in2="hardAlpha" operator="out"/>
<feColorMatrix type="matrix" values="0 0 0 0 0.596078 0 0 0 0 0.764706 0 0 0 0 0.184314 0 0 0 0.7 0"/>
<feBlend mode="normal" in2="BackgroundImageFix" result="effect1_dropShadow_8_1801"/>
<feBlend mode="normal" in="SourceGraphic" in2="effect1_dropShadow_8_1801" result="shape"/>
</filter>
<linearGradient id="paint0_linear_8_1801" x1="25" y1="10" x2="25" y2="40" gradientUnits="userSpaceOnUse">
<stop stop-color="#AFC836"/>
<stop offset="1" stop-color="#92BC2C"/>
</linearGradient>
<clipPath id="clip0_8_1801">
<rect width="15" height="15" fill="white" transform="translate(17.5 17.5)"/>
</clipPath>
</defs>
</svg>
