<svg width="50" height="50" viewBox="0 0 50 50" fill="none" xmlns="http://www.w3.org/2000/svg">
<g filter="url(#filter0_d_8_1813)">
<circle cx="25" cy="25" r="15" fill="url(#paint0_linear_8_1813)"/>
</g>
<g clip-path="url(#clip0_8_1813)">
<path fill-rule="evenodd" clip-rule="evenodd" d="M25.7276 24.9672C25.8293 24.9052 25.9155 24.7753 25.9851 24.6309C26.9004 25.0051 27.5437 25.8891 27.5437 26.9201C27.5437 28.2897 26.4085 29.4001 25.0081 29.4001C24.4332 29.4001 23.903 29.2129 23.4777 28.8976C23.3382 28.8316 23.2234 28.7681 23.1295 28.7162C22.9838 28.6356 22.8883 28.5828 22.8284 28.5911C22.6536 28.6152 22.7043 28.7761 22.7505 28.9222C22.7818 29.0215 22.811 29.114 22.7658 29.1522C22.7185 29.1921 22.5654 29.0461 22.3864 28.8754C22.1427 28.6432 21.8513 28.3653 21.7139 28.4487C21.6052 28.5147 21.7107 28.6938 21.8398 28.9129L21.8494 28.9292C21.904 29.0218 21.9672 29.1162 22.0249 29.2022C22.1422 29.3772 22.2366 29.5181 22.1894 29.542C22.1322 29.5708 21.7342 29.3022 21.3988 28.9292C21.2693 28.7852 21.1439 28.6292 21.0274 28.4842V28.4842C20.7723 28.1668 20.5598 27.9024 20.4405 27.9337C20.297 27.9714 20.4055 28.2674 20.565 28.5522C20.6396 28.6855 20.7274 28.8211 20.8033 28.9386V28.9386C20.9215 29.1212 21.0112 29.2598 20.9787 29.2769C20.9348 29.2998 20.5486 28.9233 20.2863 28.4487C20.1305 28.1669 19.9997 27.8554 19.8938 27.6032C19.779 27.3297 19.6934 27.126 19.6371 27.1055C19.4414 27.0343 19.4414 27.4334 19.5199 28.0093C19.5301 28.0845 19.5454 28.1633 19.5641 28.2435C20.3254 30.7066 22.6639 32.5 25.4307 32.5C28.815 32.5 31.5584 29.8168 31.5584 26.5068C31.5584 23.3564 29.0732 20.7738 25.9156 20.5321C25.9196 20.3836 25.9971 20.0893 25.9971 20.0893C25.9971 20.0893 26.5545 18.7406 26.584 18.4524C26.5859 18.4333 26.5882 18.4125 26.5907 18.3904C26.6254 18.079 26.69 17.5 26.1919 17.5C25.9259 17.5 25.8022 17.6979 25.6607 17.9242V17.9242C25.6064 18.0111 25.5495 18.1022 25.4809 18.1879C24.9867 18.805 24.1557 19.5756 23.6845 19.9862C22.6886 20.854 21.7115 21.5672 21.1416 21.9832L21.1416 21.9832C20.8824 22.1724 20.7075 22.3001 20.6533 22.3529C20.2453 22.7506 18.7825 25.3892 18.7825 25.3892C18.7825 25.3892 18.3094 26.2358 18.4776 26.4075C18.6457 26.5792 19.0512 26.5398 19.0512 26.5398C19.0512 26.5398 24.4987 25.2901 24.9864 25.1916C25.1177 25.165 25.2104 25.1497 25.2816 25.138C25.4748 25.1061 25.5095 25.1003 25.7276 24.9672ZM21.876 23.3612C21.5836 23.6392 21.0987 24.3026 21.0987 24.3026C21.0987 24.3026 22 24.3581 22.4963 23.8863C22.9927 23.4145 22.879 22.6103 22.879 22.6103C22.879 22.6103 22.1684 23.0833 21.876 23.3612Z" fill="white"/>
</g>
<defs>
<filter id="filter0_d_8_1813" x="0" y="0" width="50" height="50" filterUnits="userSpaceOnUse" color-interpolation-filters="sRGB">
<feFlood flood-opacity="0" result="BackgroundImageFix"/>
<feColorMatrix in="SourceAlpha" type="matrix" values="0 0 0 0 0 0 0 0 0 0 0 0 0 0 0 0 0 0 127 0" result="hardAlpha"/>
<feOffset/>
<feGaussianBlur stdDeviation="5"/>
<feColorMatrix type="matrix" values="0 0 0 0 0.027451 0 0 0 0 0.427451 0 0 0 0 0.752941 0 0 0 0.7 0"/>
<feBlend mode="normal" in2="BackgroundImageFix" result="effect1_dropShadow_8_1813"/>
<feBlend mode="normal" in="SourceGraphic" in2="effect1_dropShadow_8_1813" result="shape"/>
</filter>
<linearGradient id="paint0_linear_8_1813" x1="10.1934" y1="10" x2="10.1934" y2="39.6132" gradientUnits="userSpaceOnUse">
<stop stop-color="#0180C7"/>
<stop offset="1" stop-color="#0C69C8"/>
</linearGradient>
<clipPath id="clip0_8_1813">
<rect width="15" height="15" fill="white" transform="translate(17.5 17.5)"/>
</clipPath>
</defs>
</svg>
