<svg width="50" height="50" viewBox="0 0 50 50" fill="none" xmlns="http://www.w3.org/2000/svg">
<g filter="url(#filter0_d_8_1819)">
<circle cx="25" cy="25" r="15" fill="url(#paint0_linear_8_1819)"/>
</g>
<path fill-rule="evenodd" clip-rule="evenodd" d="M22.1423 18.9687C22.0477 18.684 22.2597 18.3902 22.5597 18.3902H26.7062C26.9009 18.3902 27.0724 18.5182 27.1278 18.7048L29.1972 25.6691C29.2809 25.951 29.0697 26.2342 28.7755 26.2342H26.2609C26.1159 26.2342 26.0106 26.3721 26.0487 26.512L27.2868 31.0519C27.4157 31.5242 26.7925 31.822 26.5059 31.425L20.8684 23.6157C20.6584 23.3248 20.8663 22.9184 21.225 22.9184H23.1496C23.2997 22.9184 23.4056 22.7715 23.3583 22.6292L22.1423 18.9687Z" fill="white"/>
<defs>
<filter id="filter0_d_8_1819" x="0" y="0" width="50" height="50" filterUnits="userSpaceOnUse" color-interpolation-filters="sRGB">
<feFlood flood-opacity="0" result="BackgroundImageFix"/>
<feColorMatrix in="SourceAlpha" type="matrix" values="0 0 0 0 0 0 0 0 0 0 0 0 0 0 0 0 0 0 127 0" result="hardAlpha"/>
<feOffset/>
<feGaussianBlur stdDeviation="5"/>
<feColorMatrix type="matrix" values="0 0 0 0 0.956863 0 0 0 0 0.835294 0 0 0 0 0.337255 0 0 0 0.7 0"/>
<feBlend mode="normal" in2="BackgroundImageFix" result="effect1_dropShadow_8_1819"/>
<feBlend mode="normal" in="SourceGraphic" in2="effect1_dropShadow_8_1819" result="shape"/>
</filter>
<linearGradient id="paint0_linear_8_1819" x1="10.1934" y1="10" x2="10.1934" y2="39.6132" gradientUnits="userSpaceOnUse">
<stop stop-color="#FBE273"/>
<stop offset="1" stop-color="#EDD53E"/>
</linearGradient>
</defs>
</svg>
