<svg width="50" height="50" viewBox="0 0 50 50" fill="none" xmlns="http://www.w3.org/2000/svg">
<g filter="url(#filter0_d_8_1852)">
<circle cx="25" cy="25" r="15" fill="url(#paint0_linear_8_1852)"/>
</g>
<g clip-path="url(#clip0_8_1852)">
<path fill-rule="evenodd" clip-rule="evenodd" d="M20.4629 30.3796C20.4115 30.3312 20.3605 30.2818 20.3102 30.2315C17.6534 27.5747 17.6534 23.2672 20.3102 20.6105C22.967 17.9537 31.4325 17.7759 31.4325 17.7759C31.4325 17.7759 32.588 27.5747 29.9312 30.2315C27.5717 32.591 23.9101 32.855 21.2592 31.0234L23.3952 28.4022L26.8098 27.665L24.0225 27.3863L25.7938 25.5828L27.8102 25.141L26.2158 24.6689L27.8102 21.7926L25.5423 24.3364L24.6665 23.1006L24.9748 25.141L23.3952 26.9218L22.663 24.6688V27.665L20.4629 30.3796Z" fill="white"/>
</g>
<defs>
<filter id="filter0_d_8_1852" x="0" y="0" width="50" height="50" filterUnits="userSpaceOnUse" color-interpolation-filters="sRGB">
<feFlood flood-opacity="0" result="BackgroundImageFix"/>
<feColorMatrix in="SourceAlpha" type="matrix" values="0 0 0 0 0 0 0 0 0 0 0 0 0 0 0 0 0 0 127 0" result="hardAlpha"/>
<feOffset/>
<feGaussianBlur stdDeviation="5"/>
<feColorMatrix type="matrix" values="0 0 0 0 0.392157 0 0 0 0 0.72549 0 0 0 0 0.329412 0 0 0 0.7 0"/>
<feBlend mode="normal" in2="BackgroundImageFix" result="effect1_dropShadow_8_1852"/>
<feBlend mode="normal" in="SourceGraphic" in2="effect1_dropShadow_8_1852" result="shape"/>
</filter>
<linearGradient id="paint0_linear_8_1852" x1="10" y1="10" x2="10" y2="40" gradientUnits="userSpaceOnUse">
<stop stop-color="#5AC178"/>
<stop offset="1" stop-color="#5FBC51"/>
</linearGradient>
<clipPath id="clip0_8_1852">
<rect width="15" height="15" fill="white" transform="translate(17.5 17.5)"/>
</clipPath>
</defs>
</svg>
