<svg width="14" height="15" viewBox="0 0 14 15" fill="none" xmlns="http://www.w3.org/2000/svg">
<path id="Vector" d="M13.707 4.08555L10.4141 0.79298C10.3213 0.700096 10.211 0.626414 10.0897 0.576144C9.96838 0.525874 9.83834 0.5 9.707 0.5C9.57567 0.5 9.44563 0.525874 9.32429 0.576144C9.20296 0.626414 9.09272 0.700096 8.99986 0.79298L0.292954 9.50004C0.200078 9.59291 0.126403 9.70316 0.0761372 9.8245C0.0258716 9.94584 0 10.0759 0 10.2072C0 10.3386 0.0258716 10.4686 0.0761372 10.59C0.126403 10.7113 0.200078 10.8216 0.292954 10.9144L3.58586 14.207C3.67871 14.2999 3.78895 14.3736 3.91029 14.4239C4.03162 14.4741 4.16166 14.5 4.293 14.5C4.42433 14.5 4.55437 14.4741 4.67571 14.4239C4.79704 14.3736 4.90728 14.2999 5.00014 14.207L13.707 5.49996C13.7999 5.40709 13.8736 5.29684 13.9239 5.1755C13.9741 5.05416 14 4.9241 14 4.79275C14 4.66141 13.9741 4.53135 13.9239 4.41001C13.8736 4.28867 13.7999 4.17842 13.707 4.08555ZM4.29268 13.5001L1.00041 10.2069L3.00027 8.20689L4.64641 9.8538C4.69286 9.90026 4.74801 9.93711 4.8087 9.96225C4.86939 9.98739 4.93444 10.0003 5.00014 10.0003C5.06583 10.0003 5.13088 9.98739 5.19157 9.96225C5.25226 9.93711 5.30741 9.90026 5.35386 9.8538C5.40031 9.80735 5.43716 9.75219 5.4623 9.6915C5.48744 9.6308 5.50038 9.56574 5.50038 9.50004C5.50038 9.43434 5.48744 9.36929 5.4623 9.30859C5.43716 9.24789 5.40031 9.19274 5.35386 9.14629L3.7071 7.5L5.00014 6.20685L6.64627 7.85376C6.74009 7.94758 6.86733 8.00029 7 8.00029C7.13267 8.00029 7.25991 7.94758 7.35373 7.85376C7.44754 7.75994 7.50024 7.63268 7.50024 7.5C7.50024 7.36731 7.44754 7.24006 7.35373 7.14624L5.70696 5.49996L7 4.2068L8.64614 5.85371C8.69259 5.90017 8.74774 5.93702 8.80843 5.96216C8.86912 5.98731 8.93417 6.00025 8.99986 6.00025C9.06556 6.00025 9.13061 5.98731 9.1913 5.96216C9.25199 5.93702 9.30714 5.90017 9.35359 5.85371C9.40004 5.80726 9.43689 5.75211 9.46203 5.69141C9.48717 5.63071 9.50011 5.56566 9.50011 5.49996C9.50011 5.43426 9.48717 5.3692 9.46203 5.3085C9.43689 5.24781 9.40004 5.19266 9.35359 5.1462L7.70683 3.49991L9.70669 1.49987L12.9996 4.79307L4.29268 13.5001Z" fill="white"/>
</svg>
