<svg width="26" height="26" viewBox="0 0 26 26" fill="none" xmlns="http://www.w3.org/2000/svg">
<path fill-rule="evenodd" clip-rule="evenodd" d="M11.0331 9.04255C10.6084 9.26148 10.21 9.54771 9.85295 9.90477C7.9693 11.7884 7.95335 14.77 9.74864 16.5652C11.5441 18.3607 14.5248 18.3452 16.4083 16.4617C16.7652 16.1048 17.0514 15.7063 17.2704 15.2816C15.5614 15.6635 13.7179 15.2262 12.4032 13.9099C11.0882 12.5947 10.6511 10.7514 11.0331 9.04255ZM18.4191 14.8893C18.4194 14.8892 18.4197 14.8891 18.4199 14.889L18.1998 14.4203L18.1993 14.4202L18.4191 14.8893ZM18.1992 14.42L18.1997 14.4201L18.0448 14.0903L18.1992 14.42ZM17.6705 13.2913C16.2977 13.9343 14.6954 13.7077 13.6518 12.6628L13.6514 12.6625C12.6069 11.6179 12.3804 10.0153 13.0234 8.64259L13.0239 8.64142C13.5043 7.61207 12.4892 6.71776 11.5916 6.95169L11.5913 6.95177C10.5053 7.23522 9.46772 7.7943 8.6051 8.65692C6.0636 11.1984 5.98543 15.2977 8.50079 17.8131C11.016 20.3283 15.1145 20.2512 17.6562 17.7096C18.5189 16.8468 19.0779 15.8084 19.3613 14.7235L19.3614 14.723C19.4883 14.2363 19.3046 13.7729 18.9907 13.4902C18.6703 13.2018 18.1622 13.0608 17.6705 13.2913Z" fill="white"/>
</svg>
