<svg width="25" height="24" viewBox="0 0 25 24" fill="none" xmlns="http://www.w3.org/2000/svg">
<g id="pokeball">
<g id="Pokeball">
<path d="M15.0776 12C15.0776 13.578 13.7984 14.8571 12.2205 14.8571C10.6425 14.8571 9.36331 13.578 9.36331 12C9.36331 10.422 10.6425 9.14286 12.2205 9.14286C13.7984 9.14286 15.0776 10.422 15.0776 12Z" fill="white"/>
<path fill-rule="evenodd" clip-rule="evenodd" d="M12.2205 24C18.2658 24 23.2671 19.5296 24.0989 13.7143H17.0707C16.3647 15.7118 14.4597 17.1429 12.2205 17.1429C9.98122 17.1429 8.07624 15.7118 7.37024 13.7143H0.34198C1.1738 19.5296 6.17508 24 12.2205 24ZM7.37024 10.2857H0.34198C1.1738 4.47035 6.17508 0 12.2205 0C18.2658 0 23.2671 4.47035 24.0989 10.2857H17.0707C16.3647 8.28824 14.4597 6.85714 12.2205 6.85714C9.98122 6.85714 8.07624 8.28824 7.37024 10.2857ZM15.0776 12C15.0776 13.578 13.7984 14.8571 12.2205 14.8571C10.6425 14.8571 9.36331 13.578 9.36331 12C9.36331 10.422 10.6425 9.14286 12.2205 9.14286C13.7984 9.14286 15.0776 10.422 15.0776 12Z" fill="white"/>
</g>
</g>
</svg>
