<svg width="13" height="11" viewBox="0 0 13 11" fill="none" xmlns="http://www.w3.org/2000/svg">
<path id="Vector" d="M11.4144 8.62821L9.87544 7.74572C9.85016 7.73134 9.82227 7.72205 9.79337 7.71838C9.76447 7.71471 9.73513 7.71673 9.70701 7.72432C9.67889 7.73191 9.65256 7.74492 9.62951 7.76262C9.60646 7.78032 9.58715 7.80235 9.57268 7.82746L9.29503 8.30542C9.23364 8.4107 9.26991 8.54647 9.37595 8.60743L10.9149 9.48992C10.9402 9.5043 10.9681 9.51359 10.997 9.51726C11.0259 9.52093 11.0552 9.51892 11.0833 9.51132C11.1114 9.50373 11.1378 9.49072 11.1608 9.47302C11.1839 9.45533 11.2032 9.43329 11.2177 9.40819L11.4953 8.93023C11.5567 8.82494 11.519 8.68917 11.4144 8.62821ZM9.57128 3.17254C9.58576 3.19765 9.60507 3.21968 9.62812 3.23738C9.65117 3.25508 9.6775 3.26809 9.70562 3.27568C9.73373 3.28327 9.76308 3.28529 9.79198 3.28162C9.82088 3.27795 9.84876 3.26866 9.87405 3.25428L11.413 2.37179C11.519 2.31083 11.5553 2.17506 11.4939 2.06977L11.2177 1.5932C11.2032 1.56809 11.1839 1.54606 11.1608 1.52836C11.1378 1.51067 11.1114 1.49765 11.0833 1.49006C11.0552 1.48247 11.0259 1.48045 10.997 1.48413C10.9681 1.4878 10.9402 1.49709 10.9149 1.51146L9.37595 2.39395C9.325 2.42345 9.28788 2.47178 9.27271 2.52838C9.25755 2.58497 9.26557 2.64523 9.29503 2.69597L9.57128 3.17254ZM11.999 5.00126H10.2131C10.0903 5.00126 9.98985 5.10101 9.98985 5.22292V5.77708C9.98985 5.89899 10.0903 5.99874 10.2131 5.99874H11.999C12.1218 5.99874 12.2222 5.89899 12.2222 5.77708V5.22292C12.2222 5.10101 12.1218 5.00126 11.999 5.00126ZM7.70028 0C7.61796 0 7.53425 0.0221663 7.45751 0.0734257L2.51142 3.28338H0.223237C0.100457 3.28338 0 3.38312 0 3.50504V7.49496C0 7.61688 0.100457 7.71662 0.223237 7.71662H2.51142L7.45751 10.9266C7.53425 10.9764 7.61936 11 7.70028 11C7.93328 11 8.14815 10.8157 8.14815 10.5553V0.44471C8.14815 0.184257 7.93328 0 7.70028 0Z" fill="white"/>
</svg>
