<svg width="17" height="16" viewBox="0 0 17 16" fill="none" xmlns="http://www.w3.org/2000/svg">
<g id="search">
<path id="Vector" d="M13.1205 13.6167L9.10379 9.6C8.77046 9.88889 8.38157 10.1139 7.93713 10.275C7.49268 10.4361 7.02046 10.5167 6.52046 10.5167C5.32046 10.5167 4.30379 10.1 3.47046 9.26667C2.63713 8.43334 2.22046 7.42778 2.22046 6.25C2.22046 5.07223 2.63713 4.06667 3.47046 3.23334C4.30379 2.4 5.3149 1.98334 6.50379 1.98334C7.68157 1.98334 8.68435 2.4 9.51213 3.23334C10.3399 4.06667 10.7538 5.07223 10.7538 6.25C10.7538 6.72778 10.676 7.18889 10.5205 7.63334C10.3649 8.07778 10.1316 8.49445 9.82046 8.88334L13.8705 12.9C13.9705 12.9889 14.0205 13.1028 14.0205 13.2417C14.0205 13.3806 13.9649 13.5056 13.8538 13.6167C13.7538 13.7167 13.6316 13.7667 13.4871 13.7667C13.3427 13.7667 13.2205 13.7167 13.1205 13.6167ZM6.50379 9.51667C7.40379 9.51667 8.17046 9.19723 8.80379 8.55834C9.43713 7.91945 9.75379 7.15 9.75379 6.25C9.75379 5.35 9.43713 4.58056 8.80379 3.94167C8.17046 3.30278 7.40379 2.98334 6.50379 2.98334C5.59268 2.98334 4.81768 3.30278 4.17879 3.94167C3.5399 4.58056 3.22046 5.35 3.22046 6.25C3.22046 7.15 3.5399 7.91945 4.17879 8.55834C4.81768 9.19723 5.59268 9.51667 6.50379 9.51667Z" fill="#DC0A2D"/>
</g>
</svg>
