<svg width="50" height="50" viewBox="0 0 50 50" fill="none" xmlns="http://www.w3.org/2000/svg">
<g filter="url(#filter0_d_8_1843)">
<circle cx="25" cy="25" r="15" fill="url(#paint0_linear_8_1843)"/>
</g>
<g clip-path="url(#clip0_8_1843)">
<path fill-rule="evenodd" clip-rule="evenodd" d="M29.8659 27.6518C29.8659 30.329 27.6874 32.4993 25.0001 32.4993C22.3128 32.4993 20.1343 30.329 20.1343 27.6518C20.1343 25.048 24.7369 17.8969 24.9893 17.5067C24.9951 17.4978 25.0051 17.4978 25.0109 17.5067C25.2633 17.8969 29.8659 25.048 29.8659 27.6518ZM24.189 30.9452C21.7198 30.405 22.1423 27.6698 22.1423 27.6698C22.1423 27.6698 22.8166 29.3209 24.4528 29.8558C26.089 30.3906 28.0663 29.6062 28.0663 29.6062C28.0663 29.6062 26.6581 31.4855 24.189 30.9452Z" fill="white"/>
</g>
<defs>
<filter id="filter0_d_8_1843" x="0" y="0" width="50" height="50" filterUnits="userSpaceOnUse" color-interpolation-filters="sRGB">
<feFlood flood-opacity="0" result="BackgroundImageFix"/>
<feColorMatrix in="SourceAlpha" type="matrix" values="0 0 0 0 0 0 0 0 0 0 0 0 0 0 0 0 0 0 127 0" result="hardAlpha"/>
<feOffset/>
<feGaussianBlur stdDeviation="5"/>
<feColorMatrix type="matrix" values="0 0 0 0 0.333333 0 0 0 0 0.619608 0 0 0 0 0.87451 0 0 0 0.7 0"/>
<feBlend mode="normal" in2="BackgroundImageFix" result="effect1_dropShadow_8_1843"/>
<feBlend mode="normal" in="SourceGraphic" in2="effect1_dropShadow_8_1843" result="shape"/>
</filter>
<linearGradient id="paint0_linear_8_1843" x1="10" y1="10" x2="10" y2="40" gradientUnits="userSpaceOnUse">
<stop stop-color="#6CBDE4"/>
<stop offset="0.994788" stop-color="#4A90DD"/>
</linearGradient>
<clipPath id="clip0_8_1843">
<rect width="15" height="15" fill="white" transform="translate(17.5 17.5)"/>
</clipPath>
</defs>
</svg>
