<svg width="11" height="13" viewBox="0 0 11 13" fill="none" xmlns="http://www.w3.org/2000/svg">
<path d="M5.5001 3.06124C5.69496 3.06124 5.85842 2.99522 5.99047 2.86317C6.12251 2.73112 6.18831 2.5679 6.18785 2.37349C6.18785 2.17863 6.12183 2.0154 5.98978 1.88381C5.85773 1.75222 5.6945 1.6862 5.5001 1.68574C5.30524 1.68574 5.14201 1.75177 5.01042 1.88381C4.87883 2.01586 4.81281 2.17909 4.81235 2.37349C4.81235 2.56835 4.87837 2.73181 5.01042 2.86386C5.14247 2.99591 5.3057 3.0617 5.5001 3.06124ZM7.44299 3.06124H8.64656C8.99043 3.06124 9.28846 3.17587 9.54063 3.40512C9.79281 3.63437 9.94755 3.9152 10.0049 4.24761L10.9849 11.1251C11.0422 11.5378 10.9363 11.9018 10.6672 12.2173C10.398 12.5327 10.0512 12.6902 9.6266 12.6897H1.3736C0.949486 12.6897 0.602631 12.5322 0.333033 12.2173C0.0634348 11.9023 -0.0424787 11.5382 0.0152923 11.1251L0.995336 4.24761C1.05265 3.9152 1.20739 3.63437 1.45957 3.40512C1.71174 3.17587 2.00977 3.06124 2.35364 3.06124H3.55721C3.52282 2.94662 3.49416 2.83497 3.47124 2.72631C3.44831 2.61764 3.43685 2.50004 3.43685 2.37349C3.43685 1.80037 3.63744 1.31321 4.03863 0.912023C4.43982 0.510835 4.92697 0.310242 5.5001 0.310242C6.07322 0.310242 6.56038 0.510835 6.96157 0.912023C7.36276 1.31321 7.56335 1.80037 7.56335 2.37349C7.56335 2.49958 7.55189 2.61719 7.52896 2.72631C7.50604 2.83543 7.47738 2.94708 7.44299 3.06124Z" fill="white"/>
</svg>
